<svg xmlns="http://www.w3.org/2000/svg" viewBox="0 0 200 200" role="img" aria-labelledby="title"><title id="title">Red Umbrella Printing</title><circle cx="100" cy="100" r="84" fill="none" stroke="#fff" stroke-width="3"/><circle cx="100" cy="100" r="69" fill="none" stroke="#fff" stroke-width="2"/><path d="M52 88c8-27 25-42 48-42s40 15 48 42c-9-7-17-7-24 0-9-8-17-8-24 0-8-8-16-8-24 0-8-7-16-7-24 0zM98 86h4v42c0 13 16 12 16 1h4c0 18-24 20-24 0z" fill="#fff"/><text x="100" y="28" text-anchor="middle" font-family="Arial,Helvetica,sans-serif" font-size="13" letter-spacing="3" fill="#fff">RED UMBRELLA</text><text x="100" y="183" text-anchor="middle" font-family="Arial,Helvetica,sans-serif" font-size="14" letter-spacing="4" fill="#fff">PRINTING</text></svg>
